<svg version="1.1" viewBox="0.0 0.0 960.0 720.0" fill="none" stroke="none" stroke-linecap="square" stroke-miterlimit="10" xmlns:xlink="http://www.w3.org/1999/xlink" xmlns="http://www.w3.org/2000/svg"><clipPath id="p.0"><path d="m0 0l960.0 0l0 720.0l-960.0 0l0 -720.0z" clip-rule="nonzero"/></clipPath><g clip-path="url(#p.0)"><path fill="#000000" fill-opacity="0.0" d="m0 0l960.0 0l0 720.0l-960.0 0z" fill-rule="evenodd"/><path fill="#000000" fill-opacity="0.0" d="m0 0l314.96063 0l0 42.015747l-314.96063 0z" fill-rule="evenodd"/><path fill="#000000" fill-opacity="0.0" d="m130.56693 181.36745l0 0c0 -38.96434 31.586838 -70.55117 70.55118 -70.55117l489.88977 0c18.711365 0 36.65631 7.4330444 49.887207 20.663963c13.230896 13.230911 20.664001 31.175873 20.664001 49.887207l0 282.2047c0 38.964355 -31.586853 70.55118 -70.55121 70.55118l-489.88977 0c-38.96434 0 -70.55118 -31.586823 -70.55118 -70.55118z" fill-rule="evenodd"/><path stroke="#000000" stroke-width="16.0" stroke-linejoin="round" stroke-linecap="butt" d="m130.56693 181.36745l0 0c0 -38.96434 31.586838 -70.55117 70.55118 -70.55117l489.88977 0c18.711365 0 36.65631 7.4330444 49.887207 20.663963c13.230896 13.230911 20.664001 31.175873 20.664001 49.887207l0 282.2047c0 38.964355 -31.586853 70.55118 -70.55121 70.55118l-489.88977 0c-38.96434 0 -70.55118 -31.586823 -70.55118 -70.55118z" fill-rule="evenodd"/><path fill="#000000" fill-opacity="0.0" d="m446.063 534.12335l0.9763794 129.54333" fill-rule="evenodd"/><path stroke="#000000" stroke-width="8.0" stroke-linejoin="round" stroke-linecap="butt" d="m446.063 534.12335l0.9763794 129.54333" fill-rule="evenodd"/><path fill="#000000" fill-opacity="0.0" d="m290.29135 663.6667l303.21262 -0.06298828" fill-rule="evenodd"/><path stroke="#000000" stroke-width="8.0" stroke-linejoin="round" stroke-linecap="butt" d="m290.29135 663.6667l303.21262 -0.06298828" fill-rule="evenodd"/></g></svg>