<svg version="1.1" viewBox="0.0 0.0 960.0 720.0" fill="none" stroke="none" stroke-linecap="square" stroke-miterlimit="10" xmlns:xlink="http://www.w3.org/1999/xlink" xmlns="http://www.w3.org/2000/svg"><clipPath id="p.0"><path d="m0 0l960.0 0l0 720.0l-960.0 0l0 -720.0z" clip-rule="nonzero"/></clipPath><g clip-path="url(#p.0)"><path fill="#000000" fill-opacity="0.0" d="m0 0l960.0 0l0 720.0l-960.0 0z" fill-rule="evenodd"/><path fill="#000000" fill-opacity="0.0" d="m0 0l314.96063 0l0 42.015747l-314.96063 0z" fill-rule="evenodd"/><path fill="#000000" fill-opacity="0.0" d="m223.06299 324.3517l0 0c0 -22.26535 18.049622 -40.314972 40.314972 -40.314972l357.03934 0c10.6922 0 20.946472 4.247467 28.507019 11.807983c7.560486 7.5605164 11.807983 17.814789 11.807983 28.506989l0 161.25983c0 22.26535 -18.049622 40.314972 -40.315002 40.314972l-357.03934 0c-22.26535 0 -40.314972 -18.049622 -40.314972 -40.314972z" fill-rule="evenodd"/><path stroke="#ffffff" stroke-width="16.0" stroke-linejoin="round" stroke-linecap="butt" d="m223.06299 324.3517l0 0c0 -22.26535 18.049622 -40.314972 40.314972 -40.314972l357.03934 0c10.6922 0 20.946472 4.247467 28.507019 11.807983c7.560486 7.5605164 11.807983 17.814789 11.807983 28.506989l0 161.25983c0 22.26535 -18.049622 40.314972 -40.315002 40.314972l-357.03934 0c-22.26535 0 -40.314972 -18.049622 -40.314972 -40.314972z" fill-rule="evenodd"/><path fill="#000000" fill-opacity="0.0" d="m441.89764 525.9265l0.9763794 129.54327" fill-rule="evenodd"/><path stroke="#ffffff" stroke-width="8.0" stroke-linejoin="round" stroke-linecap="butt" d="m441.89764 525.9265l0.9763794 129.54327" fill-rule="evenodd"/><path fill="#000000" fill-opacity="0.0" d="m290.29135 663.6667l303.21262 -0.06298828" fill-rule="evenodd"/><path stroke="#ffffff" stroke-width="8.0" stroke-linejoin="round" stroke-linecap="butt" d="m290.29135 663.6667l303.21262 -0.06298828" fill-rule="evenodd"/></g></svg>